#!OML:ASF F:\VICON\USERDATA\INSTALL\rory3\rory3.ASF
:FULLY-SPECIFIED
:DEGREES
46
root 0.42830092365690603 17.697737628924976 19.94643161342381 -2.7441969842023237 -5.254490140451382 -6.115185829089553
lfemur -15.981324278433412 2.054309835319048 -8.144098923384075
ltibia 65.75589281996379
lfoot -4.261644778892219 1.1204815931474392
ltoes 2.1039590399561114
rfemur -12.04496247759169 6.5806461899316036 33.70374473892163
rtibia 34.4060318307755
rfoot -24.001825095587726 -14.973797779493225
rtoes 2.79709349928528
lowerback 10.674894585559905 0.7156163191734521 3.783917407551839
upperback 0.874363922935668 1.7882050072935733 3.055723505145097
thorax -5.176083514833475 0.8200356710174268 1.2485960831303133
lowerneck -17.455558093951137 -2.7590999252397905 -1.2468457471007852
upperneck 20.43552853925355 -3.471220787139982 -0.002168877780523437
head 9.28951905084506 -1.7152317234002177 -0.21975422944124254
lclavicle -2.392983816183107e-15 -1.463817553511242e-16
lhumerus -30.083897044937864 0.2432745317578217 84.65219660832977
lradius 18.933619188567253
lwrist 3.793373035077794
lhand -26.866120273564025 24.59086218728352
lfingers 7.1250199999999975
lthumb -0.2907442946266897 54.566153052513926
rclavicle -2.392983816183107e-15 -1.463817553511242e-16
rhumerus -25.689043999062623 -16.22106451300865 -78.41277835636015
rradius 23.931778449732626
rwrist 6.760008400874674
rhand -18.00236068499737 22.060985306063436
rfingers 7.1250199999999975
rthumb 8.267920957517628 -8.181856785263244
47
root 0.40816541169877574 17.71061043775419 20.538122457371678 -2.5053244226658014 -4.640762183908208 -6.433988769734782
lfemur -19.53709752270154 1.8194207714410866 -8.364072025869875
ltibia 65.02569703068193
lfoot -5.566061823603099 2.1392662865024077
ltoes 1.2575831476658572
rfemur -9.716379379328542 6.298440344529369 33.90690576391531
rtibia 33.546008166387026
rfoot -24.195018422142546 -15.159220407574809
rtoes 0.8668927281831902
lowerback 10.58443765961541 0.9183978184871296 4.195865341538655
upperback 0.8212146498655251 2.103501547005839 2.9755627665910698
thorax -5.158584633796047 0.9626198943538037 0.8461577175335078
lowerneck -17.490998973854207 -2.841750346324289 -1.2958076660542845
upperneck 20.345995698562376 -3.594764721002531 0.16945855406332422
head 9.265122420611256 -1.7605095562430197 -0.18835277014300925
lclavicle -2.5712300963550892e-15 -2.652745016355456e-16
lhumerus -31.094077451277755 0.1200161326540703 84.85912066173101
lradius 19.46070380219023
lwrist 4.0551257493307284
lhand -26.32726597306647 24.462914311267433
lfingers 7.1250199999999975
lthumb 0.22965117079690311 54.42453970334335
rclavicle -2.5712300963550892e-15 -2.652745016355456e-16
rhumerus -25.071958731854124 -15.200878193837429 -78.23102909337082
rradius 24.71063633677748
rwrist 6.396139526334902
rhand -18.00116780595281 22.294401195763555
rfingers 7.1250199999999975
rthumb 8.269110390527654 -7.983933364387506
48
root 0.40808860058608204 17.738645872314088 21.44730333655373 -2.298259544990339 -3.9887333153211246 -6.519037979071568
lfemur -22.25334329867035 1.3870748931417043 -8.954271520549655
ltibia 63.49532150694399
lfoot -6.537553537385446 3.05210266467427
ltoes 0.3198899315422321
rfemur -7.15421213365011 5.925439420672353 33.962068003183234
rtibia 32.5083091913181
rfoot -23.390975896243802 -14.259649721412611
rtoes -0.734603488498109
lowerback 10.475856512436483 1.1488522012746174 4.659964740546953
upperback 0.7577772657591482 2.448410878924146 2.8480910039055907
thorax -5.123733901388336 1.11649037025526 0.4073988579740529
lowerneck -17.470562432558808 -2.925703043119808 -1.3745537959357015
upperneck 20.34559807046163 -3.7198857459730093 0.3499780241419521
head 9.271976955013187 -1.8068759627405273 -0.15473955482520327
lclavicle -2.4623403312946758e-15 -1.9264538551640918e-16
lhumerus -31.998815294159836 0.07180062950608068 85.00997329926211
lradius 20.148034085302342
lwrist 4.454425682476898
lhand -25.69450966289537 24.3246077026148
lfingers 7.1250199999999975
lthumb 0.8407250800863614 54.270796892044494
rclavicle -2.4623403312946758e-15 -1.9264538551640918e-16
rhumerus -24.555724774380586 -14.447672370423449 -77.98044072211675
rradius 25.622521729162735
rwrist 5.968381840328643
rhand -17.997886849896354 22.593805980901333
rfingers 7.1250199999999975
rthumb 8.272346713845137 -7.688673975301394
49
root 0.42263364734271186 17.779353116508176 22.37130104503544 -2.161427191825664 -3.31802642508734 -6.491900131765718
lfemur -24.333697649632832 0.7754930745646309 -9.844215784307396
ltibia 60.8868956826619
lfoot -7.341039780815587 3.6646440111956524
ltoes -0.8593002161865839
rfemur -4.507264676986269 5.4906994860533125 33.813399450055044
rtibia 30.92015208323513
rfoot -21.52736918173928 -12.483755032460172
rtoes -1.897284589987137
lowerback 10.33496326139176 1.3693934069875842 5.127380532307099
upperback 0.6821740710631643 2.772035108770898 2.679566752555922
thorax -5.074323844482441 1.2576926169670588 -0.08426744077184523
lowerneck -17.392500246476096 -3.0079527287307064 -1.4724868529713881
upperneck 20.41936193513447 -3.842590089826732 0.5058946907461006
head 9.299960143209633 -1.853130758521709 -0.12949987196536536
lclavicle -2.3790988647051938e-15 -1.3712295771451061e-16
lhumerus -32.87567323976762 0.20382936228866222 85.04858900487733
lradius 20.890068483289465
lwrist 4.866686089910605
lhand -25.15633080665256 24.25655962739054
lfingers 7.1250199999999975
lthumb 1.3604572044924095 54.18942838879677
rclavicle -2.3790988647051938e-15 -1.3712295771451061e-16
rhumerus -24.212856034805355 -13.967371009467758 -77.69951380591307
rradius 26.52854823992544
rwrist 5.5606207694264755
rhand -17.98202465649036 22.862039757943627
rfingers 7.1250199999999975
rthumb 8.287736375916245 -7.368813417884719
